<mxfile host="app.diagrams.net" modified="2021-01-31T23:50:56.639Z" agent="5.0 (Windows NT 10.0; Win64; x64) AppleWebKit/537.36 (KHTML, like Gecko) Chrome/88.0.4324.96 Safari/537.36 Edg/88.0.705.56" etag="8t_aLtg39ZRf4lP1sdHk" version="14.2.9" type="github">
  <diagram id="w5aZeatfRme06LXLvT_Q" name="Page-1">
    <mxGraphModel dx="1422" dy="762" grid="1" gridSize="10" guides="1" tooltips="1" connect="1" arrows="1" fold="1" page="1" pageScale="1" pageWidth="827" pageHeight="1169" math="0" shadow="0">
      <root>
        <mxCell id="0" />
        <mxCell id="1" parent="0" />
        <mxCell id="LbxXrkwwNujByZk3kYpM-1" value="Cards" style="shape=ext;margin=3;double=1;whiteSpace=wrap;html=1;align=center;fontFamily=Helvetica;fontSize=12;fontColor=#000000;strokeColor=#000000;fillColor=#ffffff;comic=0;sketch=0;" parent="1" vertex="1">
          <mxGeometry x="135" y="120" width="150" height="60" as="geometry" />
        </mxCell>
        <mxCell id="LbxXrkwwNujByZk3kYpM-4" value="name" style="ellipse;whiteSpace=wrap;html=1;align=center;comic=0;sketch=0;" parent="1" vertex="1">
          <mxGeometry x="160" y="40" width="100" height="40" as="geometry" />
        </mxCell>
        <mxCell id="LbxXrkwwNujByZk3kYpM-5" value="quantity" style="ellipse;whiteSpace=wrap;html=1;align=center;" parent="1" vertex="1">
          <mxGeometry x="10" y="100" width="100" height="40" as="geometry" />
        </mxCell>
        <mxCell id="LbxXrkwwNujByZk3kYpM-6" value="is Foil" style="ellipse;whiteSpace=wrap;html=1;align=center;comic=0;sketch=0;" parent="1" vertex="1">
          <mxGeometry x="10" y="160" width="100" height="40" as="geometry" />
        </mxCell>
        <mxCell id="LbxXrkwwNujByZk3kYpM-9" value="" style="endArrow=none;html=1;rounded=0;exitX=0.25;exitY=0;exitDx=0;exitDy=0;entryX=1;entryY=1;entryDx=0;entryDy=0;comic=0;sketch=0;" parent="1" source="LbxXrkwwNujByZk3kYpM-1" target="LbxXrkwwNujByZk3kYpM-30" edge="1">
          <mxGeometry relative="1" as="geometry">
            <mxPoint x="210" y="230" as="sourcePoint" />
            <mxPoint x="125.23279132485573" y="84.1909853947335" as="targetPoint" />
          </mxGeometry>
        </mxCell>
        <mxCell id="LbxXrkwwNujByZk3kYpM-12" value="" style="endArrow=none;html=1;rounded=0;exitX=0.5;exitY=0;exitDx=0;exitDy=0;entryX=0.5;entryY=1;entryDx=0;entryDy=0;comic=0;sketch=0;" parent="1" source="LbxXrkwwNujByZk3kYpM-1" target="LbxXrkwwNujByZk3kYpM-4" edge="1">
          <mxGeometry relative="1" as="geometry">
            <mxPoint x="340" y="160" as="sourcePoint" />
            <mxPoint x="500" y="160" as="targetPoint" />
          </mxGeometry>
        </mxCell>
        <mxCell id="LbxXrkwwNujByZk3kYpM-13" value="" style="endArrow=none;html=1;rounded=0;entryX=0;entryY=0.25;entryDx=0;entryDy=0;exitX=1;exitY=0.5;exitDx=0;exitDy=0;" parent="1" source="LbxXrkwwNujByZk3kYpM-5" target="LbxXrkwwNujByZk3kYpM-1" edge="1">
          <mxGeometry relative="1" as="geometry">
            <mxPoint x="120" y="110" as="sourcePoint" />
            <mxPoint x="120" y="140" as="targetPoint" />
          </mxGeometry>
        </mxCell>
        <mxCell id="LbxXrkwwNujByZk3kYpM-14" value="" style="endArrow=none;html=1;rounded=0;exitX=0;exitY=0.75;exitDx=0;exitDy=0;entryX=1;entryY=0.5;entryDx=0;entryDy=0;comic=0;sketch=0;" parent="1" source="LbxXrkwwNujByZk3kYpM-1" target="LbxXrkwwNujByZk3kYpM-6" edge="1">
          <mxGeometry relative="1" as="geometry">
            <mxPoint x="340" y="160" as="sourcePoint" />
            <mxPoint x="500" y="160" as="targetPoint" />
          </mxGeometry>
        </mxCell>
        <mxCell id="LbxXrkwwNujByZk3kYpM-49" style="edgeStyle=none;rounded=0;comic=0;sketch=0;orthogonalLoop=1;jettySize=auto;html=1;exitX=0;exitY=0.5;exitDx=0;exitDy=0;entryX=0.5;entryY=0;entryDx=0;entryDy=0;endArrow=none;endFill=0;" parent="1" source="LbxXrkwwNujByZk3kYpM-15" target="LbxXrkwwNujByZk3kYpM-48" edge="1">
          <mxGeometry relative="1" as="geometry">
            <Array as="points">
              <mxPoint x="210" y="320" />
              <mxPoint x="20" y="320" />
              <mxPoint x="20" y="430" />
              <mxPoint x="115" y="430" />
            </Array>
          </mxGeometry>
        </mxCell>
        <mxCell id="LbxXrkwwNujByZk3kYpM-56" style="edgeStyle=none;rounded=0;comic=0;sketch=0;orthogonalLoop=1;jettySize=auto;html=1;exitX=0;exitY=0.5;exitDx=0;exitDy=0;entryX=0.5;entryY=0;entryDx=0;entryDy=0;endArrow=none;endFill=0;strokeColor=#000000;" parent="1" source="LbxXrkwwNujByZk3kYpM-15" target="LbxXrkwwNujByZk3kYpM-50" edge="1">
          <mxGeometry relative="1" as="geometry">
            <Array as="points">
              <mxPoint x="210" y="320" />
              <mxPoint x="20" y="320" />
              <mxPoint x="20" y="430" />
              <mxPoint x="285" y="430" />
            </Array>
          </mxGeometry>
        </mxCell>
        <mxCell id="LbxXrkwwNujByZk3kYpM-57" style="edgeStyle=none;rounded=0;comic=0;sketch=0;orthogonalLoop=1;jettySize=auto;html=1;exitX=0;exitY=0.5;exitDx=0;exitDy=0;entryX=0.5;entryY=0;entryDx=0;entryDy=0;endArrow=none;endFill=0;strokeColor=#000000;" parent="1" source="LbxXrkwwNujByZk3kYpM-15" target="LbxXrkwwNujByZk3kYpM-51" edge="1">
          <mxGeometry relative="1" as="geometry">
            <Array as="points">
              <mxPoint x="210" y="320" />
              <mxPoint x="20" y="320" />
              <mxPoint x="20" y="430" />
              <mxPoint x="455" y="430" />
            </Array>
          </mxGeometry>
        </mxCell>
        <mxCell id="LbxXrkwwNujByZk3kYpM-58" style="edgeStyle=none;rounded=0;comic=0;sketch=0;orthogonalLoop=1;jettySize=auto;html=1;exitX=0;exitY=0.5;exitDx=0;exitDy=0;entryX=0.5;entryY=0;entryDx=0;entryDy=0;endArrow=none;endFill=0;strokeColor=#000000;" parent="1" source="LbxXrkwwNujByZk3kYpM-15" target="LbxXrkwwNujByZk3kYpM-52" edge="1">
          <mxGeometry relative="1" as="geometry">
            <Array as="points">
              <mxPoint x="210" y="320" />
              <mxPoint x="20" y="320" />
              <mxPoint x="20" y="430" />
              <mxPoint x="625" y="430" />
            </Array>
          </mxGeometry>
        </mxCell>
        <mxCell id="LbxXrkwwNujByZk3kYpM-59" style="edgeStyle=none;rounded=0;comic=0;sketch=0;orthogonalLoop=1;jettySize=auto;html=1;exitX=0;exitY=0.5;exitDx=0;exitDy=0;entryX=0.5;entryY=0;entryDx=0;entryDy=0;endArrow=none;endFill=0;strokeColor=#000000;" parent="1" source="LbxXrkwwNujByZk3kYpM-15" target="LbxXrkwwNujByZk3kYpM-53" edge="1">
          <mxGeometry relative="1" as="geometry">
            <Array as="points">
              <mxPoint x="210" y="320" />
              <mxPoint x="20" y="320" />
              <mxPoint x="20" y="540" />
              <mxPoint x="115" y="540" />
            </Array>
          </mxGeometry>
        </mxCell>
        <mxCell id="LbxXrkwwNujByZk3kYpM-60" style="edgeStyle=none;rounded=0;comic=0;sketch=0;orthogonalLoop=1;jettySize=auto;html=1;exitX=0;exitY=0.5;exitDx=0;exitDy=0;entryX=0.5;entryY=0;entryDx=0;entryDy=0;endArrow=none;endFill=0;strokeColor=#000000;" parent="1" source="LbxXrkwwNujByZk3kYpM-15" target="LbxXrkwwNujByZk3kYpM-54" edge="1">
          <mxGeometry relative="1" as="geometry">
            <Array as="points">
              <mxPoint x="210" y="320" />
              <mxPoint x="20" y="320" />
              <mxPoint x="20" y="540" />
              <mxPoint x="285" y="540" />
            </Array>
          </mxGeometry>
        </mxCell>
        <mxCell id="LbxXrkwwNujByZk3kYpM-61" style="edgeStyle=none;rounded=0;comic=0;sketch=0;orthogonalLoop=1;jettySize=auto;html=1;exitX=0;exitY=0.5;exitDx=0;exitDy=0;entryX=0.5;entryY=0;entryDx=0;entryDy=0;endArrow=none;endFill=0;strokeColor=#000000;" parent="1" source="LbxXrkwwNujByZk3kYpM-15" target="LbxXrkwwNujByZk3kYpM-55" edge="1">
          <mxGeometry relative="1" as="geometry">
            <Array as="points">
              <mxPoint x="210" y="320" />
              <mxPoint x="20" y="320" />
              <mxPoint x="20" y="540" />
              <mxPoint x="455" y="540" />
            </Array>
          </mxGeometry>
        </mxCell>
        <mxCell id="LbxXrkwwNujByZk3kYpM-62" style="edgeStyle=none;rounded=0;comic=0;sketch=0;orthogonalLoop=1;jettySize=auto;html=1;exitX=0;exitY=0.5;exitDx=0;exitDy=0;entryX=0.5;entryY=0;entryDx=0;entryDy=0;endArrow=none;endFill=0;strokeColor=#000000;" parent="1" source="LbxXrkwwNujByZk3kYpM-15" target="LbxXrkwwNujByZk3kYpM-47" edge="1">
          <mxGeometry relative="1" as="geometry">
            <Array as="points">
              <mxPoint x="210" y="320" />
              <mxPoint x="625" y="320" />
            </Array>
          </mxGeometry>
        </mxCell>
        <mxCell id="LbxXrkwwNujByZk3kYpM-15" value="" style="triangle;whiteSpace=wrap;html=1;rotation=0;direction=north;aspect=fixed;" parent="1" vertex="1">
          <mxGeometry x="186.91" y="260" width="46.19" height="40" as="geometry" />
        </mxCell>
        <mxCell id="LbxXrkwwNujByZk3kYpM-16" value="" style="endArrow=none;html=1;entryX=0.5;entryY=1;entryDx=0;entryDy=0;exitX=1;exitY=0.5;exitDx=0;exitDy=0;shape=link;" parent="1" source="LbxXrkwwNujByZk3kYpM-15" target="LbxXrkwwNujByZk3kYpM-1" edge="1">
          <mxGeometry width="50" height="50" relative="1" as="geometry">
            <mxPoint x="250" y="210" as="sourcePoint" />
            <mxPoint x="210" y="330" as="targetPoint" />
          </mxGeometry>
        </mxCell>
        <mxCell id="LbxXrkwwNujByZk3kYpM-17" value="" style="endArrow=none;html=1;entryX=0;entryY=0.5;entryDx=0;entryDy=0;exitX=0.5;exitY=0;exitDx=0;exitDy=0;rounded=0;" parent="1" source="LbxXrkwwNujByZk3kYpM-18" target="LbxXrkwwNujByZk3kYpM-15" edge="1">
          <mxGeometry width="50" height="50" relative="1" as="geometry">
            <mxPoint x="210" y="320" as="sourcePoint" />
            <mxPoint x="200" y="370" as="targetPoint" />
            <Array as="points">
              <mxPoint x="115" y="320" />
              <mxPoint x="210" y="320" />
            </Array>
          </mxGeometry>
        </mxCell>
        <mxCell id="LbxXrkwwNujByZk3kYpM-18" value="English" style="whiteSpace=wrap;html=1;align=center;" parent="1" vertex="1">
          <mxGeometry x="40" y="340" width="150" height="60" as="geometry" />
        </mxCell>
        <mxCell id="LbxXrkwwNujByZk3kYpM-19" value="French" style="whiteSpace=wrap;html=1;align=center;" parent="1" vertex="1">
          <mxGeometry x="210" y="340" width="150" height="60" as="geometry" />
        </mxCell>
        <mxCell id="LbxXrkwwNujByZk3kYpM-20" value="German" style="whiteSpace=wrap;html=1;align=center;" parent="1" vertex="1">
          <mxGeometry x="380" y="340" width="150" height="60" as="geometry" />
        </mxCell>
        <mxCell id="LbxXrkwwNujByZk3kYpM-21" value="" style="endArrow=none;html=1;entryX=0;entryY=0.5;entryDx=0;entryDy=0;exitX=0.5;exitY=0;exitDx=0;exitDy=0;rounded=0;" parent="1" source="LbxXrkwwNujByZk3kYpM-19" target="LbxXrkwwNujByZk3kYpM-15" edge="1">
          <mxGeometry width="50" height="50" relative="1" as="geometry">
            <mxPoint x="260" y="320" as="sourcePoint" />
            <mxPoint x="310" y="270" as="targetPoint" />
            <Array as="points">
              <mxPoint x="285" y="320" />
              <mxPoint x="210" y="320" />
            </Array>
          </mxGeometry>
        </mxCell>
        <mxCell id="LbxXrkwwNujByZk3kYpM-22" value="" style="endArrow=none;html=1;entryX=0;entryY=0.5;entryDx=0;entryDy=0;exitX=0.5;exitY=0;exitDx=0;exitDy=0;rounded=0;" parent="1" source="LbxXrkwwNujByZk3kYpM-20" target="LbxXrkwwNujByZk3kYpM-15" edge="1">
          <mxGeometry width="50" height="50" relative="1" as="geometry">
            <mxPoint x="350" y="340" as="sourcePoint" />
            <mxPoint x="400" y="290" as="targetPoint" />
            <Array as="points">
              <mxPoint x="455" y="320" />
              <mxPoint x="210" y="320" />
            </Array>
          </mxGeometry>
        </mxCell>
        <mxCell id="LbxXrkwwNujByZk3kYpM-23" value="Set" style="whiteSpace=wrap;html=1;align=center;" parent="1" vertex="1">
          <mxGeometry x="525" y="120" width="150" height="60" as="geometry" />
        </mxCell>
        <mxCell id="LbxXrkwwNujByZk3kYpM-24" value="belongs to &amp;gt;" style="shape=rhombus;perimeter=rhombusPerimeter;html=1;align=center;movableLabel=1;" parent="1" vertex="1">
          <mxGeometry x="380" y="120" width="60" height="60" as="geometry">
            <mxPoint x="-1" y="-40" as="offset" />
          </mxGeometry>
        </mxCell>
        <mxCell id="LbxXrkwwNujByZk3kYpM-30" value="&lt;span style=&quot;border-bottom: 1px dotted&quot;&gt;collector&#39;s number&lt;/span&gt;" style="ellipse;whiteSpace=wrap;html=1;align=center;comic=0;sketch=0;" parent="1" vertex="1">
          <mxGeometry x="30" y="50" width="110" height="40" as="geometry" />
        </mxCell>
        <mxCell id="LbxXrkwwNujByZk3kYpM-35" value="id" style="ellipse;whiteSpace=wrap;html=1;align=center;fontStyle=4;" parent="1" vertex="1">
          <mxGeometry x="550" y="40" width="100" height="40" as="geometry" />
        </mxCell>
        <mxCell id="LbxXrkwwNujByZk3kYpM-38" value="name" style="ellipse;whiteSpace=wrap;html=1;align=center;" parent="1" vertex="1">
          <mxGeometry x="670" y="50" width="100" height="40" as="geometry" />
        </mxCell>
        <mxCell id="LbxXrkwwNujByZk3kYpM-39" value="" style="endArrow=none;html=1;entryX=0.5;entryY=1;entryDx=0;entryDy=0;exitX=0.5;exitY=0;exitDx=0;exitDy=0;" parent="1" source="LbxXrkwwNujByZk3kYpM-23" target="LbxXrkwwNujByZk3kYpM-35" edge="1">
          <mxGeometry width="50" height="50" relative="1" as="geometry">
            <mxPoint x="585" y="260" as="sourcePoint" />
            <mxPoint x="635" y="210" as="targetPoint" />
          </mxGeometry>
        </mxCell>
        <mxCell id="LbxXrkwwNujByZk3kYpM-40" value="" style="endArrow=none;html=1;entryX=0;entryY=1;entryDx=0;entryDy=0;exitX=0.75;exitY=0;exitDx=0;exitDy=0;" parent="1" source="LbxXrkwwNujByZk3kYpM-23" target="LbxXrkwwNujByZk3kYpM-38" edge="1">
          <mxGeometry width="50" height="50" relative="1" as="geometry">
            <mxPoint x="675" y="160" as="sourcePoint" />
            <mxPoint x="725" y="110" as="targetPoint" />
          </mxGeometry>
        </mxCell>
        <mxCell id="LbxXrkwwNujByZk3kYpM-45" style="edgeStyle=none;rounded=0;comic=0;sketch=0;orthogonalLoop=1;jettySize=auto;html=1;exitX=0;exitY=0.5;exitDx=0;exitDy=0;entryX=1;entryY=0.25;entryDx=0;entryDy=0;endArrow=none;endFill=0;" parent="1" source="LbxXrkwwNujByZk3kYpM-41" target="LbxXrkwwNujByZk3kYpM-23" edge="1">
          <mxGeometry relative="1" as="geometry" />
        </mxCell>
        <mxCell id="LbxXrkwwNujByZk3kYpM-41" value="symbol" style="ellipse;whiteSpace=wrap;html=1;align=center;" parent="1" vertex="1">
          <mxGeometry x="700" y="100" width="100" height="40" as="geometry" />
        </mxCell>
        <mxCell id="LbxXrkwwNujByZk3kYpM-46" style="edgeStyle=none;rounded=0;comic=0;sketch=0;orthogonalLoop=1;jettySize=auto;html=1;exitX=0;exitY=0.5;exitDx=0;exitDy=0;entryX=1;entryY=0.75;entryDx=0;entryDy=0;endArrow=none;endFill=0;" parent="1" source="LbxXrkwwNujByZk3kYpM-42" target="LbxXrkwwNujByZk3kYpM-23" edge="1">
          <mxGeometry relative="1" as="geometry" />
        </mxCell>
        <mxCell id="LbxXrkwwNujByZk3kYpM-42" value="release&lt;br&gt;date" style="ellipse;whiteSpace=wrap;html=1;align=center;" parent="1" vertex="1">
          <mxGeometry x="700" y="160" width="100" height="40" as="geometry" />
        </mxCell>
        <mxCell id="LbxXrkwwNujByZk3kYpM-44" style="rounded=0;comic=0;sketch=0;orthogonalLoop=1;jettySize=auto;html=1;exitX=0;exitY=1;exitDx=0;exitDy=0;entryX=0.75;entryY=0;entryDx=0;entryDy=0;endArrow=none;endFill=0;" parent="1" source="LbxXrkwwNujByZk3kYpM-43" target="LbxXrkwwNujByZk3kYpM-1" edge="1">
          <mxGeometry relative="1" as="geometry" />
        </mxCell>
        <mxCell id="LbxXrkwwNujByZk3kYpM-43" value="image" style="ellipse;whiteSpace=wrap;html=1;align=center;" parent="1" vertex="1">
          <mxGeometry x="280" y="50" width="100" height="40" as="geometry" />
        </mxCell>
        <mxCell id="LbxXrkwwNujByZk3kYpM-47" value="Spanish" style="whiteSpace=wrap;html=1;align=center;" parent="1" vertex="1">
          <mxGeometry x="550" y="340" width="150" height="60" as="geometry" />
        </mxCell>
        <mxCell id="LbxXrkwwNujByZk3kYpM-48" value="Italian" style="whiteSpace=wrap;html=1;align=center;" parent="1" vertex="1">
          <mxGeometry x="40" y="450" width="150" height="60" as="geometry" />
        </mxCell>
        <mxCell id="LbxXrkwwNujByZk3kYpM-50" value="Simplified Chinese" style="whiteSpace=wrap;html=1;align=center;" parent="1" vertex="1">
          <mxGeometry x="210" y="450" width="150" height="60" as="geometry" />
        </mxCell>
        <mxCell id="LbxXrkwwNujByZk3kYpM-51" value="Japanese" style="whiteSpace=wrap;html=1;align=center;" parent="1" vertex="1">
          <mxGeometry x="380" y="450" width="150" height="60" as="geometry" />
        </mxCell>
        <mxCell id="LbxXrkwwNujByZk3kYpM-52" value="Portuguese" style="whiteSpace=wrap;html=1;align=center;" parent="1" vertex="1">
          <mxGeometry x="550" y="450" width="150" height="60" as="geometry" />
        </mxCell>
        <mxCell id="LbxXrkwwNujByZk3kYpM-53" value="Russian" style="whiteSpace=wrap;html=1;align=center;" parent="1" vertex="1">
          <mxGeometry x="40" y="560" width="150" height="60" as="geometry" />
        </mxCell>
        <mxCell id="LbxXrkwwNujByZk3kYpM-54" value="Korean" style="whiteSpace=wrap;html=1;align=center;" parent="1" vertex="1">
          <mxGeometry x="210" y="560" width="150" height="60" as="geometry" />
        </mxCell>
        <mxCell id="LbxXrkwwNujByZk3kYpM-55" value="Traditional Chinese" style="whiteSpace=wrap;html=1;align=center;" parent="1" vertex="1">
          <mxGeometry x="380" y="560" width="150" height="60" as="geometry" />
        </mxCell>
        <mxCell id="LbxXrkwwNujByZk3kYpM-65" style="edgeStyle=none;rounded=0;comic=0;sketch=0;orthogonalLoop=1;jettySize=auto;html=1;exitX=1;exitY=0;exitDx=0;exitDy=0;entryX=0.25;entryY=1;entryDx=0;entryDy=0;endArrow=none;endFill=0;strokeColor=#000000;" parent="1" source="LbxXrkwwNujByZk3kYpM-63" target="LbxXrkwwNujByZk3kYpM-1" edge="1">
          <mxGeometry relative="1" as="geometry" />
        </mxCell>
        <mxCell id="LbxXrkwwNujByZk3kYpM-63" value="trend price" style="ellipse;whiteSpace=wrap;html=1;align=center;comic=0;sketch=0;" parent="1" vertex="1">
          <mxGeometry x="40" y="210" width="100" height="40" as="geometry" />
        </mxCell>
        <mxCell id="LbxXrkwwNujByZk3kYpM-66" style="edgeStyle=none;rounded=0;comic=0;sketch=0;orthogonalLoop=1;jettySize=auto;html=1;exitX=0;exitY=0;exitDx=0;exitDy=0;entryX=0.75;entryY=1;entryDx=0;entryDy=0;endArrow=none;endFill=0;strokeColor=#000000;" parent="1" source="LbxXrkwwNujByZk3kYpM-64" target="LbxXrkwwNujByZk3kYpM-1" edge="1">
          <mxGeometry relative="1" as="geometry" />
        </mxCell>
        <mxCell id="LbxXrkwwNujByZk3kYpM-64" value="cost" style="ellipse;whiteSpace=wrap;html=1;align=center;comic=0;sketch=0;" parent="1" vertex="1">
          <mxGeometry x="280" y="210" width="100" height="40" as="geometry" />
        </mxCell>
        <mxCell id="7vg0u5Q1fAgDdJZoSstC-1" value="" style="shape=link;html=1;rounded=0;endArrow=none;endFill=0;strokeColor=#000000;exitX=1;exitY=0.5;exitDx=0;exitDy=0;entryX=0;entryY=0.5;entryDx=0;entryDy=0;" edge="1" parent="1" source="LbxXrkwwNujByZk3kYpM-1" target="LbxXrkwwNujByZk3kYpM-24">
          <mxGeometry relative="1" as="geometry">
            <mxPoint x="320" y="199.52" as="sourcePoint" />
            <mxPoint x="480" y="199.52" as="targetPoint" />
          </mxGeometry>
        </mxCell>
        <mxCell id="7vg0u5Q1fAgDdJZoSstC-2" value="N" style="resizable=0;html=1;align=right;verticalAlign=bottom;" connectable="0" vertex="1" parent="7vg0u5Q1fAgDdJZoSstC-1">
          <mxGeometry x="1" relative="1" as="geometry" />
        </mxCell>
        <mxCell id="7vg0u5Q1fAgDdJZoSstC-4" value="" style="endArrow=none;html=1;rounded=0;strokeColor=#000000;entryX=1;entryY=0.5;entryDx=0;entryDy=0;exitX=0;exitY=0.5;exitDx=0;exitDy=0;" edge="1" parent="1" source="LbxXrkwwNujByZk3kYpM-23" target="LbxXrkwwNujByZk3kYpM-24">
          <mxGeometry relative="1" as="geometry">
            <mxPoint x="470" y="210" as="sourcePoint" />
            <mxPoint x="630" y="210" as="targetPoint" />
          </mxGeometry>
        </mxCell>
        <mxCell id="7vg0u5Q1fAgDdJZoSstC-5" value="1" style="resizable=0;html=1;align=right;verticalAlign=bottom;" connectable="0" vertex="1" parent="7vg0u5Q1fAgDdJZoSstC-4">
          <mxGeometry x="1" relative="1" as="geometry">
            <mxPoint x="6" as="offset" />
          </mxGeometry>
        </mxCell>
      </root>
    </mxGraphModel>
  </diagram>
</mxfile>
